<?xml version="1.0" encoding="UTF-8" standalone="no"?><!DOCTYPE svg PUBLIC "-//W3C//DTD SVG 1.1//EN" "http://www.w3.org/Graphics/SVG/1.1/DTD/svg11.dtd"><svg width="100%" height="100%" viewBox="0 0 7627 3029" version="1.1" xmlns="http://www.w3.org/2000/svg" xmlns:xlink="http://www.w3.org/1999/xlink" xml:space="preserve" xmlns:serif="http://www.serif.com/" style="fill-rule:evenodd;clip-rule:evenodd;stroke-linejoin:round;stroke-miterlimit:2;"><g><g><path d="M16.14,2324.174c100.069,-41.964 206.593,-64.56 316.346,-64.56c519.711,0 807.005,542.307 1559.134,542.307c277.61,0 535.851,-167.857 648.832,-422.871l-19.368,-9.684c-96.841,222.733 -319.574,374.45 -561.675,374.45c-706.936,0 -952.266,-593.956 -1568.818,-548.763l0,-1972.32c0,-80.7 29.052,-206.593 132.349,-206.593l0,-16.14l-390.59,0l0,16.14c103.297,0 129.121,135.577 129.121,213.049l0,1794.779c0,77.472 -31.677,195.999 -129.121,222.733c-45.192,12.912 -90.385,29.052 -132.349,48.42l16.14,29.052Z" style="fill:#fff0a9;fill-rule:nonzero;"/><path d="M1081.862,999.116c0,-48.434 14.127,-143.284 80.724,-143.284l0,-10.09l-242.171,0l0,10.09c66.597,0 80.724,94.85 80.724,143.284l0,883.923c0,264.37 217.954,395.546 462.143,395.546c254.279,0 504.522,-145.302 504.522,-423.799l0,-793.109c0,-80.724 28.253,-205.845 131.176,-205.845l0,-10.09l-300.695,0l0,10.09c102.923,0 131.176,131.176 131.176,211.899l0,781.001c0,215.936 -179.61,391.509 -395.546,391.509c-236.116,0 -452.052,-121.085 -452.052,-383.437l0,-857.688Z" style="fill:#fff0a9;fill-rule:nonzero;"/><path d="M2193.83,2246.295l0,10.09l330.967,0l0,-10.09c-36.326,2.018 -60.543,-18.163 -60.543,-56.507c0,-30.271 14.127,-62.561 30.271,-88.796l284.551,-494.432l528.739,752.747c149.339,213.917 393.527,393.527 665.97,393.527c30.271,0 60.543,-2.018 90.814,-8.072l-2.018,-10.09c-20.181,4.036 -38.344,4.036 -58.525,4.036c-240.153,0 -456.088,-179.61 -587.264,-365.274l-593.318,-845.58l282.533,-494.432c58.525,-102.923 155.393,-171.538 276.478,-177.592l0,-10.09l-332.985,0l0,10.09c40.362,0 80.724,16.145 80.724,62.561c0,28.253 -14.127,56.507 -28.253,80.724l-292.623,510.577l-464.161,-663.951c-151.357,-215.936 -401.6,-391.509 -674.042,-391.509c-28.253,0 -56.507,2.018 -84.76,6.054l20.181,10.09c18.163,-4.036 36.326,-4.036 54.488,-4.036c230.062,0 450.034,187.682 575.156,365.274l528.739,754.766l-272.442,476.269c-62.561,108.977 -171.538,179.61 -298.677,183.646Z" style="fill:#fff0a9;fill-rule:nonzero;"/><path d="M3662.999,999.116c0,-48.434 14.127,-143.284 80.724,-143.284l0,-10.09l-242.171,0l0,10.09c66.597,0 80.724,94.85 80.724,143.284l0,883.923c0,264.37 217.954,395.546 462.143,395.546c254.279,0 504.522,-145.302 504.522,-423.799l0,-793.109c0,-80.724 28.253,-205.845 131.176,-205.845l0,-10.09l-300.695,0l0,10.09c102.923,0 131.176,131.176 131.176,211.899l0,781.001c0,215.936 -179.61,391.509 -395.546,391.509c-236.116,0 -452.052,-121.085 -452.052,-383.437l0,-857.688Z" style="fill:#fff0a9;fill-rule:nonzero;"/><path d="M5000.992,1939.546c0,-297.768 13.706,-246.207 228.044,-246.207c262.352,-0 250.243,579.192 450.034,579.192c72.651,0 155.393,-60.543 191.719,-121.085l-12.109,-6.054c-24.217,44.398 -80.724,90.814 -135.212,90.814c-159.429,0 -125.122,-470.215 -391.509,-552.957c209.881,-20.181 365.274,-197.773 365.274,-407.654c0,-258.315 -181.628,-429.853 -456.088,-429.853l-401.6,0l0,10.09c52.47,0 80.724,48.434 80.724,123.103l0,1136.184c0,68.615 -26.235,131.176 -80.724,131.176l0,10.09l242.171,0l0,-10.09c-64.579,0 -80.724,-82.742 -80.724,-131.176l0,-175.574Zm0,-512.595l0,-561.029l244.189,0c226.026,0 375.365,169.52 375.365,425.817c0,211.899 -171.538,381.419 -381.419,381.419c-271.991,0 -238.135,-7.198 -238.135,-246.207Z" style="fill:#fff0a9;fill-rule:nonzero;"/><path d="M6175.52,984.989c0,-52.47 20.181,-129.158 86.778,-129.158l0,-10.09l-254.279,0l0,10.09c66.597,0 86.778,78.705 86.778,133.194l0,1122.058c0,52.47 -20.181,135.212 -86.778,135.212l0,10.09l254.279,0l0,-10.09c-66.597,0 -86.778,-78.705 -86.778,-131.176l0,-1130.13Z" style="fill:#fff0a9;fill-rule:nonzero;"/><path d="M7006.973,1626.742c185.106,-0 182.502,-21.644 254.279,163.465l127.14,337.021c8.072,20.181 12.109,40.362 12.109,60.543c0,40.362 -22.199,58.525 -60.543,58.525l0,10.09l286.569,0l0,-10.09c-82.742,-14.127 -131.176,-66.597 -159.429,-141.266c-10.09,-28.253 -20.181,-56.507 -32.289,-82.742l-60.543,-167.501c-12.109,-28.253 -22.199,-54.488 -32.289,-82.742c-36.326,-94.85 -127.14,-326.931 -135.212,-351.148l-213.917,-575.156l-18.163,0l-393.527,1200.763c-28.253,88.796 -100.904,199.791 -205.845,199.791l0,10.09l300.695,0l0,-10.09c-62.561,0 -92.832,-44.398 -92.832,-104.941c0,-28.253 6.054,-58.525 16.145,-86.778l141.266,-427.835l266.388,0Zm131.176,-139.248c43.899,126.671 0.639,119.067 -151.357,119.067l-240.153,0l207.863,-635.698c30.271,78.705 164.482,461.333 183.646,516.631Z" style="fill:#fff0a9;fill-rule:nonzero;"/></g><g transform="matrix(1,0,0,0.897039,0,124.509143)"><g transform="matrix(780.250532,0,0,780.250532,6706.709757,3132.901676)"></g><g transform="matrix(780.250532,0,0,780.250532,7627.405385,3132.901676)"></g><text x="4072.584px" y="3132.902px" style="font-family:'MichiganSignature-Regular', 'Michigan Signature';font-size:780.251px;fill:#fff0a9;">Hom<tspan x="6261.187px 6706.71px " y="3132.902px 3132.902px ">e</tspan></text></g></g></svg>