<?xml version="1.0" encoding="UTF-8" standalone="no"?><!DOCTYPE svg PUBLIC "-//W3C//DTD SVG 1.1//EN" "http://www.w3.org/Graphics/SVG/1.1/DTD/svg11.dtd"><svg width="100%" height="100%" viewBox="0 0 7627 3029" version="1.1" xmlns="http://www.w3.org/2000/svg" xmlns:xlink="http://www.w3.org/1999/xlink" xml:space="preserve" xmlns:serif="http://www.serif.com/" style="fill-rule:evenodd;clip-rule:evenodd;stroke-linejoin:round;stroke-miterlimit:2;"><g><g><path d="M16.14,2324.174c100.069,-41.964 206.593,-64.56 316.346,-64.56c519.711,0 807.005,542.307 1559.134,542.307c277.61,0 535.851,-167.857 648.832,-422.871l-19.368,-9.684c-96.841,222.733 -319.574,374.45 -561.675,374.45c-706.936,0 -952.266,-593.956 -1568.818,-548.763l0,-1972.32c0,-80.7 29.052,-206.593 132.349,-206.593l0,-16.14l-390.59,0l0,16.14c103.297,0 129.121,135.577 129.121,213.049l0,1794.779c0,77.472 -31.677,195.999 -129.121,222.733c-45.192,12.912 -90.385,29.052 -132.349,48.42l16.14,29.052Z" style="fill:#2b2927;fill-rule:nonzero;"/><path d="M1081.862,999.116c0,-48.434 14.127,-143.284 80.724,-143.284l0,-10.09l-242.171,0l0,10.09c66.597,0 80.724,94.85 80.724,143.284l0,883.923c0,264.37 217.954,395.546 462.143,395.546c254.279,0 504.522,-145.302 504.522,-423.799l0,-793.109c0,-80.724 28.253,-205.845 131.176,-205.845l0,-10.09l-300.695,0l0,10.09c102.923,0 131.176,131.176 131.176,211.899l0,781.001c0,215.936 -179.61,391.509 -395.546,391.509c-236.116,0 -452.052,-121.085 -452.052,-383.437l0,-857.688Z" style="fill:#2b2927;fill-rule:nonzero;"/><path d="M2193.83,2246.295l0,10.09l330.967,0l0,-10.09c-36.326,2.018 -60.543,-18.163 -60.543,-56.507c0,-30.271 14.127,-62.561 30.271,-88.796l284.551,-494.432l528.739,752.747c149.339,213.917 393.527,393.527 665.97,393.527c30.271,0 60.543,-2.018 90.814,-8.072l-2.018,-10.09c-20.181,4.036 -38.344,4.036 -58.525,4.036c-240.153,0 -456.088,-179.61 -587.264,-365.274l-593.318,-845.58l282.533,-494.432c58.525,-102.923 155.393,-171.538 276.478,-177.592l0,-10.09l-332.985,0l0,10.09c40.362,0 80.724,16.145 80.724,62.561c0,28.253 -14.127,56.507 -28.253,80.724l-292.623,510.577l-464.161,-663.951c-151.357,-215.936 -401.6,-391.509 -674.042,-391.509c-28.253,0 -56.507,2.018 -84.76,6.054l20.181,10.09c18.163,-4.036 36.326,-4.036 54.488,-4.036c230.062,0 450.034,187.682 575.156,365.274l528.739,754.766l-272.442,476.269c-62.561,108.977 -171.538,179.61 -298.677,183.646Z" style="fill:#2b2927;fill-rule:nonzero;"/><path d="M3662.999,999.116c0,-48.434 14.127,-143.284 80.724,-143.284l0,-10.09l-242.171,0l0,10.09c66.597,0 80.724,94.85 80.724,143.284l0,883.923c0,264.37 217.954,395.546 462.143,395.546c254.279,0 504.522,-145.302 504.522,-423.799l0,-793.109c0,-80.724 28.253,-205.845 131.176,-205.845l0,-10.09l-300.695,0l0,10.09c102.923,0 131.176,131.176 131.176,211.899l0,781.001c0,215.936 -179.61,391.509 -395.546,391.509c-236.116,0 -452.052,-121.085 -452.052,-383.437l0,-857.688Z" style="fill:#2b2927;fill-rule:nonzero;"/><path d="M5000.992,1939.546c0,-297.768 13.706,-246.207 228.044,-246.207c262.352,-0 250.243,579.192 450.034,579.192c72.651,0 155.393,-60.543 191.719,-121.085l-12.109,-6.054c-24.217,44.398 -80.724,90.814 -135.212,90.814c-159.429,0 -125.122,-470.215 -391.509,-552.957c209.881,-20.181 365.274,-197.773 365.274,-407.654c0,-258.315 -181.628,-429.853 -456.088,-429.853l-401.6,0l0,10.09c52.47,0 80.724,48.434 80.724,123.103l0,1136.184c0,68.615 -26.235,131.176 -80.724,131.176l0,10.09l242.171,0l0,-10.09c-64.579,0 -80.724,-82.742 -80.724,-131.176l0,-175.574Zm0,-512.595l0,-561.029l244.189,0c226.026,0 375.365,169.52 375.365,425.817c0,211.899 -171.538,381.419 -381.419,381.419c-271.991,0 -238.135,-7.198 -238.135,-246.207Z" style="fill:#2b2927;fill-rule:nonzero;"/><path d="M6175.52,984.989c0,-52.47 20.181,-129.158 86.778,-129.158l0,-10.09l-254.279,0l0,10.09c66.597,0 86.778,78.705 86.778,133.194l0,1122.058c0,52.47 -20.181,135.212 -86.778,135.212l0,10.09l254.279,0l0,-10.09c-66.597,0 -86.778,-78.705 -86.778,-131.176l0,-1130.13Z" style="fill:#2b2927;fill-rule:nonzero;"/><path d="M7006.973,1626.742c185.106,-0 182.502,-21.644 254.279,163.465l127.14,337.021c8.072,20.181 12.109,40.362 12.109,60.543c0,40.362 -22.199,58.525 -60.543,58.525l0,10.09l286.569,0l0,-10.09c-82.742,-14.127 -131.176,-66.597 -159.429,-141.266c-10.09,-28.253 -20.181,-56.507 -32.289,-82.742l-60.543,-167.501c-12.109,-28.253 -22.199,-54.488 -32.289,-82.742c-36.326,-94.85 -127.14,-326.931 -135.212,-351.148l-213.917,-575.156l-18.163,0l-393.527,1200.763c-28.253,88.796 -100.904,199.791 -205.845,199.791l0,10.09l300.695,0l0,-10.09c-62.561,0 -92.832,-44.398 -92.832,-104.941c0,-28.253 6.054,-58.525 16.145,-86.778l141.266,-427.835l266.388,0Zm131.176,-139.248c43.899,126.671 0.639,119.067 -151.357,119.067l-240.153,0l207.863,-635.698c30.271,78.705 164.482,461.333 183.646,516.631Z" style="fill:#2b2927;fill-rule:nonzero;"/></g><g><path d="M4225.513,2726.269c-20.287,1.4 -31.21,20.997 -31.21,37.795c0,18.198 12.484,30.796 32.771,30.796c9.363,0 17.166,-2.8 24.968,-5.599c29.65,-9.099 62.42,-16.098 96.751,-22.397c-56.958,76.291 -113.917,151.882 -168.534,229.572c-3.121,4.199 -7.803,11.199 -7.803,15.398c0,15.398 10.924,16.798 24.968,16.798c29.65,0 45.255,-16.798 60.86,-36.396c57.739,-77.691 110.796,-157.481 164.633,-236.571c113.917,-13.998 237.976,-18.198 336.288,-22.397l3.901,0c-47.595,68.592 -95.191,136.483 -138.104,207.175c-1.561,2.8 -6.242,12.598 -6.242,15.398c0,15.398 12.484,16.798 26.529,16.798c31.21,0 45.255,-13.998 59.299,-36.396c45.255,-67.892 87.388,-137.883 130.302,-206.475l81.926,-3.5c14.045,0 15.605,-15.398 15.605,-23.797c0,-9.799 -6.242,-34.996 -21.847,-33.596l-39.013,3.5c35.892,-55.993 73.344,-110.587 115.477,-163.08c14.045,-18.198 60.86,-61.593 60.86,-82.59c0,-11.199 -9.363,-23.797 -23.408,-23.797c-32.771,0 -63.981,33.596 -81.146,55.993c-21.847,27.997 -37.452,60.193 -56.178,89.589c-27.309,44.095 -56.178,86.789 -85.828,129.484l-344.871,28.697c46.815,-66.492 95.971,-132.284 149.808,-194.576c14.045,-16.798 65.541,-62.992 65.541,-82.59c0,-11.199 -7.803,-23.797 -21.847,-23.797c-34.331,0 -65.541,33.596 -84.267,55.993c-23.408,27.997 -42.134,60.193 -62.42,89.589c-37.452,54.593 -75.684,107.787 -114.697,160.98l-163.072,13.998Z" style="fill:#2b2927;fill-rule:nonzero;"/><path d="M5132.164,2824.257c45.255,23.797 88.949,32.196 134.203,32.196c40.573,0 185.7,-5.599 185.7,-55.993c0,-11.199 -12.484,-25.197 -32.771,-20.997c-35.892,8.399 -96.751,22.397 -152.929,22.397c-67.102,0 -120.159,-27.997 -132.643,-69.992c-4.682,-19.598 -18.726,-30.796 -34.331,-30.796c-59.299,0 -199.744,137.183 -199.744,194.576c0,23.797 23.408,39.195 54.618,39.195c67.102,0 127.961,-68.592 176.337,-110.587l1.561,0Zm-156.05,46.194c17.166,-32.196 42.134,-55.993 88.949,-86.789c-12.484,40.595 -37.452,62.992 -88.949,86.789Z" style="fill:#2b2927;fill-rule:nonzero;"/><path d="M6085.63,2877.451c81.146,0 134.203,-19.598 202.865,-48.994c54.618,-22.397 24.968,-55.993 0,-47.594c-26.529,8.399 -131.082,41.995 -204.426,41.995c-76.465,0 -45.255,-114.786 -113.917,-114.786c-53.057,0 -188.821,90.989 -232.515,113.386c3.121,-27.997 23.408,-54.593 23.408,-83.99c0,-23.797 -12.484,-40.595 -28.089,-40.595c-34.331,0 -226.273,113.386 -259.043,130.184c7.803,-12.598 32.771,-43.395 49.936,-58.793c15.605,-13.998 28.089,-19.598 28.089,-30.796c0,-15.398 -15.605,-29.396 -32.771,-29.396c-49.936,0 -156.05,123.185 -156.05,176.379c0,16.798 21.847,32.196 46.815,32.196c45.255,0 224.712,-111.986 260.604,-132.984c-6.242,19.598 -20.287,57.393 -20.287,78.39c0,20.997 15.605,39.195 35.892,39.195c48.376,0 198.184,-102.188 251.241,-127.385c32.771,76.991 63.981,103.587 148.248,103.587Z" style="fill:#2b2927;fill-rule:nonzero;"/><path d="M6314.244,2838.256c51.497,-4.199 182.579,-20.997 182.579,-86.789c0,-36.396 -37.452,-58.793 -74.904,-58.793c-76.465,0 -187.26,81.19 -187.26,152.581c0,69.992 76.465,81.19 145.127,81.19c65.541,0 354.234,-53.194 354.234,-128.784c0,-8.399 -3.121,-16.798 -14.045,-16.798c-1.561,0 -191.942,86.789 -318.342,86.789c-29.65,0 -87.388,4.199 -87.388,-29.396Zm34.331,-62.992c12.484,-12.598 48.376,-30.796 67.102,-30.796c3.121,0 7.803,0 7.803,4.199c0,16.798 -60.86,26.597 -74.904,26.597Z" style="fill:#2b2927;fill-rule:nonzero;"/><path d="M6814.384,2877.451c110.796,-30.096 235.636,-44.795 359.695,-44.795c145.127,0 290.253,19.598 412.753,57.393c4.682,1.4 10.143,2.1 15.605,2.1c10.924,0 21.067,-4.199 23.408,-17.498c4.682,-20.997 -15.605,-23.797 -34.331,-29.396c-135.764,-37.795 -274.648,-58.793 -418.995,-58.793c-119.378,0 -243.438,14.698 -372.18,47.594c-7.803,-9.799 -15.605,-26.597 -21.847,-43.395c-6.242,-15.398 56.178,-27.997 56.178,-61.593c0,-29.396 -21.847,-46.194 -46.815,-46.194c-62.42,0 -92.07,32.196 -92.07,61.593c0,76.991 21.847,109.187 21.847,109.187c-127.961,47.594 -117.038,155.381 -32.771,155.381c74.904,0 129.522,-68.592 129.522,-131.584Zm-93.63,37.795c3.121,9.799 -9.363,25.197 -18.726,25.197c-6.242,0 -9.363,-1.4 -9.363,-4.199c0,-6.999 17.166,-18.198 28.089,-20.997Z" style="fill:#2b2927;fill-rule:nonzero;"/></g></g></svg>